<svg xmlns="http://www.w3.org/2000/svg" width="92" height="121" viewBox="0 0 92 121">
    <defs>
        <style>
            .cls-1{fill:#fff}.cls-2{fill:none;stroke:#707070;stroke-miterlimit:10;stroke-width:2px;stroke-dasharray:10 2;mix-blend-mode:multiply;isolation:isolate}.cls-3{fill:url(#linear-gradient)}
        </style>
        <linearGradient id="linear-gradient" x1=".006" x2=".978" y1=".006" y2=".978" gradientUnits="objectBoundingBox">
            <stop offset="0" stop-color="#3d1054"/>
            <stop offset="1" stop-color="#7b1e58"/>
        </linearGradient>
    </defs>
    <g id="Add_notebook" data-name="Add notebook" transform="translate(1 1)">
        <g id="Book">
            <rect id="Book-2" width="90" height="119" class="cls-1" data-name="Book" rx="2"/>
            <rect id="Book-3" width="90" height="119" class="cls-2" data-name="Book" rx="2"/>
        </g>
        <g id="plus-circle" transform="translate(31 46)">
            <path id="Shape" d="M14 28A14 14 0 0 1 4.1 4.1a14 14 0 0 1 19.8 19.8A13.908 13.908 0 0 1 14 28zm0-26a12 12 0 1 0 12 12A12.014 12.014 0 0 0 14 2zm.328 19h-.656a.657.657 0 0 1-.656-.656v-5.36h-5.36A.657.657 0 0 1 7 14.328v-.656a.657.657 0 0 1 .656-.656h5.359v-5.36A.657.657 0 0 1 13.672 7h.656a.657.657 0 0 1 .656.656v5.359h5.36a.657.657 0 0 1 .656.656v.656a.657.657 0 0 1-.656.656h-5.36v5.36a.657.657 0 0 1-.656.657z" class="cls-3"/>
        </g>
    </g>
</svg>
