<svg xmlns="http://www.w3.org/2000/svg" width="120" height="172" viewBox="0 0 120 172">
    <defs>
        <style>
            .cls-1{fill:url(#linear-gradient)}.cls-2{fill:none;stroke:#fff;stroke-miterlimit:10;stroke-width:3px;mix-blend-mode:multiply;isolation:isolate}.cls-3{fill:#fff}.cls-4{fill:#4a4a4a;font-size:15px;font-family:SegoeUI,Segoe UI;letter-spacing:-.004em}.cls-5{filter:url(#Book)}
        </style>
        <linearGradient id="linear-gradient" x1=".006" x2=".978" y1=".006" y2=".978" gradientUnits="objectBoundingBox">
            <stop offset="0" stop-color="#3d1054"/>
            <stop offset="1" stop-color="#7b1e58"/>
        </linearGradient>
        <filter id="Book" width="120" height="153" x="0" y="0" filterUnits="userSpaceOnUse">
            <feOffset dy="3"/>
            <feGaussianBlur result="blur" stdDeviation="3"/>
            <feFlood flood-opacity=".216"/>
            <feComposite in2="blur" operator="in"/>
            <feComposite in="SourceGraphic"/>
        </filter>
    </defs>
    <g id="Links_Notebook" data-name="Links Notebook" transform="translate(8 6)">
        <g id="Book-2" data-name="Book">
            <g id="_Notebook" transform="translate(1)">
                <g id="Book-3" data-name="Book">
                    <g class="cls-5" transform="translate(-9 -6)">
                        <path id="Book-4" d="M2 0h95a5 5 0 0 1 5 5v125a5 5 0 0 1-5 5H2a2 2 0 0 1-2-2V2a2 2 0 0 1 2-2z" class="cls-1" data-name="Book" transform="translate(9 6)"/>
                    </g>
                    <path id="Book-5" d="M2 0h95a5 5 0 0 1 5 5v125a5 5 0 0 1-5 5H2a2 2 0 0 1-2-2V2a2 2 0 0 1 2-2z" class="cls-2" data-name="Book"/>
                </g>
                <path id="Rectangle_4" d="M0 0h7v135H0z" class="cls-3" data-name="Rectangle 4" transform="translate(86)"/>
                <g id="Group_2" data-name="Group 2" transform="translate(10 123)">
                    <rect id="Rectangle_5" width="8" height="2" class="cls-3" data-name="Rectangle 5" rx="1"/>
                    <rect id="Rectangle_5-2" width="8" height="2" class="cls-3" data-name="Rectangle 5" rx="1" transform="translate(10)"/>
                    <rect id="Rectangle_5-3" width="8" height="2" class="cls-3" data-name="Rectangle 5" rx="1" transform="translate(20)"/>
                </g>
            </g>
            <text id="Weekend_Plans" class="cls-4" data-name="Weekend Plans" transform="translate(0 146)">
                <tspan x="1.209" y="16">Weekend Plans</tspan>
            </text>
        </g>
    </g>
</svg>
